<svg xmlns="http://www.w3.org/2000/svg" xmlns:xlink="http://www.w3.org/1999/xlink" width="40" zoomAndPan="magnify" viewBox="0 0 30 30.000001" height="40" preserveAspectRatio="xMidYMid meet" version="1.0"><defs><clipPath id="1298fbbdf9"><path d="M 3.792969 3.5625 L 26 3.5625 L 26 25.335938 L 3.792969 25.335938 Z M 3.792969 3.5625 " clip-rule="nonzero"/></clipPath></defs><g clip-path="url(#1298fbbdf9)"><path fill="#ffffff" d="M 25.539062 12.503906 C 25.449219 12 24.941406 11.652344 24.433594 11.746094 C 23.925781 11.839844 23.582031 12.34375 23.671875 12.851562 C 23.765625 13.382812 23.832031 13.9375 23.832031 14.488281 C 23.832031 19.488281 19.777344 23.546875 14.773438 23.546875 C 9.773438 23.546875 5.714844 19.511719 5.714844 14.511719 C 5.714844 9.507812 9.773438 5.453125 14.773438 5.453125 C 15.996094 5.453125 17.195312 5.683594 18.300781 6.167969 C 18.785156 6.375 19.335938 6.144531 19.546875 5.660156 C 19.753906 5.175781 19.523438 4.625 19.039062 4.414062 C 17.679688 3.859375 16.25 3.5625 14.773438 3.5625 C 8.734375 3.5625 3.824219 8.472656 3.824219 14.511719 C 3.824219 20.550781 8.734375 25.460938 14.773438 25.460938 C 20.816406 25.460938 25.722656 20.550781 25.722656 14.511719 C 25.722656 13.820312 25.652344 13.152344 25.539062 12.503906 " fill-opacity="1" fill-rule="nonzero"/></g><path fill="#ffffff" d="M 12.214844 11.769531 C 11.085938 10.132812 8.390625 11.699219 9.539062 13.335938 C 10.925781 15.316406 12.191406 17.390625 13.574219 19.375 C 14.242188 20.320312 15.605469 20.410156 16.25 19.375 C 18.785156 15.269531 21.414062 11.285156 24.777344 7.804688 C 26.160156 6.375 23.972656 4.160156 22.589844 5.613281 C 19.613281 8.703125 17.148438 12.160156 14.867188 15.753906 C 13.992188 14.417969 13.136719 13.082031 12.214844 11.769531 " fill-opacity="1" fill-rule="nonzero"/></svg>